PathFileType	4	(X/Y/Z)	webcam_static.trc
DataRate	CameraRate	NumFrames	NumMarkers	Units	OrigDataRate	OrigDataStartFrame	OrigNumFrames
29.300983568096093	29.300983568096093	26	12	mm	29.300983568096093	1133	1294
Frame#	Time	JOINT_RIGHT_SHOULDER			JOINT_LEFT_SHOULDER			JOINT_RIGHT_ELBOW			JOINT_LEFT_ELBOW			JOINT_LEFT_WRIST			JOINT_RIGHT_WRIST			JOINT_RIGHT_PINKY			JOINT_LEFT_PINKY			JOINT_RIGHT_INDEX			JOINT_LEFT_INDEX			JOINT_RIGHT_HIP			JOINT_LEFT_HIP
		X1	Y1	Z1	X2	Y2	Z2	X3	Y3	Z3	X4	Y4	Z4	X5	Y5	Z5	X6	Y6	Z6	X7	Y7	Z7	X8	Y8	Z8	X9	Y9	Z9	X10	Y10	Z10	X11	Y11	Z11	X12	Y12	Z12

1133	1753709347.052316	197.526351	422.351122	166.068316	126.730204	421.363205	-162.079766	167.431325	157.433614	222.100988	92.708766	182.328716	-185.957700	203.188628	-8.675401	-273.190260	256.432593	-44.299196	324.859083	277.197212	-95.252514	353.906542	227.010548	-73.933601	-304.313362	315.873951	-98.511301	342.652291	264.271438	-76.619230	-288.531840	16.152766	1.351223	118.733808	-17.431255	-0.499265	-117.940500
1134	1753709347.087181	197.505414	422.367096	166.078314	126.700699	421.338558	-162.009582	167.340308	157.456875	222.090706	92.583030	182.305098	-185.819671	202.693850	-8.683151	-273.195416	256.071210	-44.191107	324.819684	276.641846	-95.102243	353.818476	226.207078	-73.930755	-304.318041	315.250486	-98.357111	342.573404	263.505399	-76.616049	-288.590312	16.159739	1.347819	118.728936	-17.438550	-0.495859	-117.936447
1135	1753709347.123567	196.403086	422.736555	165.981591	126.525342	421.392888	-162.131757	165.685430	157.883182	221.964926	92.492968	182.448581	-185.870871	202.627316	-8.401467	-273.489714	253.860354	-43.639004	324.789375	273.890078	-94.685778	353.784680	226.103008	-73.732026	-304.613948	312.434793	-97.978979	342.559904	263.406247	-76.445863	-289.019316	16.171874	1.346195	118.734688	-17.451830	-0.494169	-117.943771
1136	1753709347.157673	196.563661	422.863632	165.746689	126.802772	421.362191	-162.518382	165.823191	157.910839	221.929818	92.508659	182.441682	-185.942531	202.575326	-8.316465	-274.041235	254.050046	-43.624662	324.658424	274.138957	-94.677195	353.664637	226.013675	-73.577471	-305.145919	312.564194	-97.973019	342.380166	263.318658	-76.356880	-289.944023	16.205991	1.340637	118.753143	-17.489474	-0.486579	-117.964275
1137	1753709347.190380	195.607603	423.564553	165.295824	126.034990	421.655267	-163.075060	163.967729	158.236399	221.785709	90.585373	183.006167	-186.174050	200.600192	-8.049218	-274.270117	251.355976	-43.403570	324.292570	271.018475	-94.428226	353.473216	223.537967	-73.366493	-305.178851	308.967680	-97.804978	342.263818	261.056215	-76.255396	-290.110171	16.226033	1.371061	118.754938	-17.510476	-0.514218	-117.966786
1138	1753709347.225126	195.658803	423.511147	165.156215	126.104429	421.599507	-163.178563	164.046362	158.125445	221.785262	90.549685	182.975233	-186.207891	199.973300	-8.177992	-274.598062	251.357675	-43.542966	324.274451	270.973712	-94.468780	353.466004	222.667396	-73.418386	-305.532277	308.860779	-97.914770	342.250913	260.290146	-76.438494	-290.687978	16.271947	1.366197	118.752569	-17.556483	-0.508982	-117.965356
1139	1753709347.263062	195.664063	423.334688	164.351672	125.982255	421.590775	-163.877159	164.068982	157.686591	221.526638	89.976221	182.971388	-186.865032	198.276654	-8.409783	-275.511354	251.160085	-44.131573	324.113458	270.578176	-94.856612	353.380144	220.555097	-73.616549	-306.427062	308.251888	-98.464392	342.151016	258.356214	-76.854661	-291.722983	16.476411	1.362693	118.749492	-17.760307	-0.505107	-117.962815
1140	1753709347.295172	195.348024	423.139989	164.011955	125.089437	421.590865	-164.057374	164.085165	157.426611	221.518174	89.341052	182.942107	-187.019229	197.220460	-8.643022	-275.999278	251.011461	-44.480648	324.128270	270.252705	-95.065117	353.387386	219.427526	-73.767833	-307.183683	307.776868	-98.794110	342.143863	257.272273	-77.184752	-292.453349	16.682124	1.314507	118.747480	-17.966161	-0.457622	-117.961369
1141	1753709347.331622	194.946781	422.973961	163.762882	124.571383	421.560258	-164.415687	163.882270	157.262757	221.470147	88.516138	182.826206	-187.399760	195.440978	-9.486184	-276.609212	250.519544	-44.619948	324.076355	269.542813	-95.118739	353.353411	217.378691	-74.558325	-307.826966	306.853771	-98.923065	342.051893	255.349725	-78.373723	-293.161750	16.744124	1.311135	118.742645	-18.027455	-0.453977	-117.957592
1142	1753709347.361217	194.888726	422.306508	163.339466	124.447912	421.390086	-164.774463	163.974434	156.693533	221.447796	88.281192	182.501301	-187.560141	194.421768	-11.077533	-276.876599	250.460029	-45.449816	324.045151	269.346952	-95.668264	353.348166	216.074705	-75.961746	-308.164448	306.469768	-99.782258	342.005581	254.144549	-80.453396	-293.571383	16.758354	1.321021	118.734844	-18.041695	-0.464223	-117.950365
1143	1753709347.397955	194.936901	422.162563	163.158551	124.449439	421.142697	-165.113792	164.231837	156.642392	221.387580	88.232517	181.940183	-187.940627	194.332823	-12.782029	-277.397156	250.703484	-45.927715	323.847741	269.644469	-96.109129	353.073061	216.016009	-77.516235	-308.922619	306.744844	-100.346856	341.552019	254.096866	-82.185268	-294.336736	16.744433	1.328405	118.736506	-18.027902	-0.471960	-117.952317
1144	1753709347.429063	196.503818	422.155887	162.904426	125.362709	420.718431	-165.311664	166.463926	156.671777	221.377194	88.511080	180.889472	-187.951416	194.380462	-13.947556	-277.611464	253.873557	-46.248369	323.754787	273.728460	-96.577995	352.770805	216.169104	-78.446627	-309.450269	310.862660	-100.997776	340.828478	254.260540	-83.273888	-295.051455	16.770514	1.329907	118.738756	-18.056806	-0.472760	-117.956311
1145	1753709347.467083	196.515515	422.149211	162.435845	125.167310	420.638382	-165.510505	166.557148	156.719789	221.331254	87.512679	180.757746	-187.999889	192.091838	-14.724504	-277.754575	253.848404	-46.808135	323.398352	273.688465	-97.429425	352.386206	213.545486	-79.308219	-309.567034	310.716540	-102.258787	340.103179	251.781344	-84.374495	-295.243621	16.798582	1.357415	118.723936	-18.085010	-0.498886	-117.943056
1146	1753709347.499654	196.685508	422.020704	162.403420	125.300750	420.230508	-165.485501	167.169347	156.805962	221.465036	87.622054	180.240735	-188.002318	192.186400	-15.976777	-277.770340	254.586041	-47.199931	323.335797	274.499595	-97.957663	351.977587	213.750646	-80.613464	-309.665650	311.678767	-102.884285	339.470237	251.942068	-85.683860	-295.308322	16.721580	1.352437	118.709147	-18.007811	-0.495150	-117.928937
1147	1753709347.535342	196.884707	422.044575	162.322536	125.883698	420.066029	-165.512785	167.352438	157.274961	221.519068	87.940484	179.946125	-187.982053	192.416504	-16.667612	-277.779818	254.860222	-47.243781	323.294282	274.849564	-98.114580	351.685733	214.201450	-81.374682	-309.738874	312.029511	-103.078708	339.043826	252.385378	-86.551942	-295.399457	16.708678	1.374110	118.692651	-17.997595	-0.517157	-117.915824
1148	1753709347.567155	197.269142	421.992242	162.312195	126.603067	420.021474	-165.511116	167.795777	157.653749	221.617445	88.390730	179.916501	-187.984914	192.857698	-17.115554	-277.717471	255.751997	-47.297329	323.326975	275.967687	-98.340787	351.655245	214.736596	-82.128190	-309.704363	313.489258	-103.325948	339.014381	252.944648	-87.245815	-295.308739	16.535161	1.371591	118.664980	-17.823754	-0.515047	-117.889017
1149	1753709347.601501	197.157070	422.153771	162.306949	126.880229	420.021981	-165.553734	167.865574	158.266872	221.692041	89.224502	179.908320	-188.133687	194.421574	-17.223990	-277.734369	256.661415	-47.120452	323.341310	277.325630	-98.224223	351.610184	216.938332	-82.311936	-309.770226	314.891577	-103.156529	338.924199	255.146980	-87.373242	-295.311600	16.467869	1.382803	118.663102	-17.758921	-0.527738	-117.889196
1150	1753709347.634950	195.199892	422.408640	162.321046	124.778196	420.207679	-165.526584	166.462049	159.528285	221.826836	87.142862	180.201292	-188.082874	193.390846	-17.030448	-276.946127	255.796134	-46.605196	323.329777	276.473105	-97.856566	351.454794	215.972245	-82.186922	-308.790773	313.861966	-102.789938	338.792682	254.203469	-87.210491	-294.122219	16.479988	1.418940	118.653171	-17.771734	-0.566620	-117.880531
1151	1753709347.672227	194.426566	422.655731	162.231043	124.070659	420.364141	-165.577233	166.278675	160.050780	221.798301	86.591281	180.246934	-187.985450	193.372339	-16.811179	-276.386976	255.972594	-45.868862	323.108077	276.881993	-97.058840	350.959212	215.988487	-81.961960	-308.168352	314.188361	-101.814345	338.265568	254.216969	-86.856999	-293.480486	16.491974	1.435354	118.649580	-17.783888	-0.584428	-117.877960
1152	1753709347.701136	194.458500	422.737032	162.272081	123.987198	420.522869	-165.407121	166.418582	160.415024	221.836835	86.288571	180.377185	-187.056541	193.222463	-16.519444	-274.302870	256.547272	-45.472600	322.959244	277.719468	-96.779943	350.533217	215.882003	-81.728920	-305.845439	314.870328	-101.460248	337.791175	254.145086	-86.605258	-291.167706	16.511137	1.472835	118.641153	-17.804967	-0.621946	-117.871009
1153	1753709347.737467	194.524169	422.815412	162.416205	123.959191	420.572013	-165.210605	166.622087	160.526901	221.857637	86.184636	180.397421	-186.575159	193.259060	-16.375575	-273.381501	257.520974	-45.354761	322.661668	279.131055	-96.652254	349.948108	215.984762	-81.565499	-304.843456	316.372335	-101.241611	337.215573	254.277557	-86.303994	-290.128291	16.548596	1.482476	118.636496	-17.843366	-0.632230	-117.867351
1154	1753709347.773657	194.347993	423.310399	162.480757	123.232208	421.035260	-165.059105	166.398630	161.274046	221.873760	84.847830	180.821225	-186.046869	192.701355	-15.694050	-272.150099	257.521003	-44.245366	322.188437	279.176921	-95.630974	349.129081	215.550631	-81.036486	-303.276032	316.423744	-100.011192	336.445719	253.917903	-85.653752	-288.597733	16.562035	1.497192	118.629888	-17.857468	-0.646568	-117.861599
1155	1753709347.804984	193.539023	423.665553	162.477419	122.035526	421.321988	-165.028468	165.845737	161.640167	221.871749	83.530985	181.051299	-185.928494	192.190573	-15.285907	-271.661550	257.386476	-43.451868	321.319044	279.104590	-94.665140	347.759992	215.206116	-80.615118	-302.671373	316.341788	-98.742276	335.157484	253.572911	-85.081376	-287.966669	16.571848	1.511028	118.623890	-17.866876	-0.661408	-117.855690
1156	1753709347.840156	193.615064	423.916191	162.556753	122.038774	421.415865	-164.929345	165.887341	161.891311	221.948117	83.471246	181.135893	-185.680449	192.191198	-14.916624	-271.386147	257.551849	-42.871382	320.792973	279.368758	-93.900926	346.879810	215.227693	-80.132373	-302.423805	316.613227	-97.757094	334.209025	253.583580	-84.431328	-287.762314	16.579693	1.509080	118.622832	-17.875064	-0.659946	-117.855333
1157	1753709347.874556	193.637669	424.328566	162.555888	122.037299	421.751887	-164.938971	165.987581	162.068084	221.983612	83.445512	181.360766	-185.430884	192.324236	-14.289155	-270.763338	258.230478	-42.646933	320.346117	280.388832	-93.631133	346.217752	215.525031	-79.447322	-301.701635	317.669451	-97.418398	333.410531	253.865033	-83.579443	-287.035435	16.581371	1.510695	118.632592	-17.877107	-0.661599	-117.866635
1158	1753709347.910069	193.703890	424.550831	162.552714	122.039549	421.867460	-164.944038	166.200206	162.349567	222.012460	83.432965	181.469306	-185.409069	192.371294	-13.903953	-270.727426	258.795172	-42.025503	319.902122	281.154811	-92.921436	345.566362	215.653196	-78.975558	-301.684231	318.371207	-96.559159	332.593411	253.976166	-83.009876	-287.035048	16.588066	1.513575	118.632481	-17.884627	-0.664615	-117.867351
